pedal_clip_forces_x_-0.11_y_-0.06.mot
version=1
nRows=125
nColumns=4
inDegrees=yes
endheader
time	PedalClip_calcn_r_Fx	PedalClip_calcn_r_Fy	PedalClip_calcn_r_Fz
0.86330941	-13.3402789643621	27.3994837830161	0
0.86343838	-13.4689722614724	27.4964237702154	0
0.86378893	-13.5980259062493	27.5939690835802	0
0.86392692	-13.7273934340353	27.6920474564404	0
0.86417941	-13.8570348723814	27.7906148216669	0
0.8645262	-13.9869393590037	27.889691482385	0
0.86457693	-14.117112464597	27.989331193959	0
0.86470537	-14.2475658676939	28.0895595173612	0
0.86505274	-14.3782786145201	28.190325663222	0
0.86518851	-14.5092112872305	28.2915624528527	0
0.8654387	-14.6403323366528	28.3932297357548	0
0.8657838	-14.7716405992424	28.4953467824141	0
0.86583395	-14.9031522545562	28.5979671726578	0
0.86596203	-15.0348837743041	28.7011185510672	0
0.86630516	-15.1668095395698	28.8047473866368	0
0.86643893	-15.2988793257187	28.9087800634621	0
0.86668654	-15.4310526554627	29.0131734532656	0
0.86703035	-15.5633273343993	29.1179523061819	0
0.86707967	-15.6957218191624	29.2231765335972	0
0.86720755	-15.8282562841234	29.3288770352283	0
0.86754518	-15.9609124159869	29.4350072020057	0
0.86767719	-16.0936517830729	29.5415035584477	0
0.86792182	-16.2264461186747	29.6483315871002	0
0.86826468	-16.3593066907691	29.7555203290182	0
0.86831291	-16.4922647801161	29.8631340123207	0
0.86844076	-16.6253490077396	29.9712103034922	0
0.86877138	-16.7585428648422	30.0797048119365	0
0.868902	-16.8918037445145	30.1885511379907	0
0.86914316	-17.0250990363372	30.2977127275933	0
0.86948535	-17.1584406785511	30.4072200335995	0
0.86953223	-17.2918623728555	30.5171402504551	0
0.86966021	-17.4253968158117	30.6275139329446	0
0.86998205	-17.5590382016141	30.7383059390374	0
0.8701061	-17.692758363079	30.8494619661514	0
0.87034074	-17.8265365187485	30.9609551574513	0
0.87068522	-17.9603942964111	31.0728213558239	0
0.87072841	-18.0943724280098	31.1851328131875	0
0.87085816	-18.2285084326912	31.2979386180398	0
0.87115716	-18.3627979746111	31.4112073488415	0
0.87126196	-18.4972086252809	31.5248813958713	0
0.87148633	-18.6317136447467	31.638931640887	0
0.87183355	-18.7663315932292	31.7533980055479	0
0.87187143	-18.9011033534919	31.8683553050701	0
0.87200412	-19.0360679414782	31.9838506263929	0
0.87227173	-19.1712242867725	32.0998515834161	0
0.87235347	-19.306543561153	32.2162999137844	0
0.8725842	-19.4420022782388	32.3331676623854	0
0.87290785	-19.5776236591795	32.4505001654331	0
0.87295966	-19.7134528834359	32.568377754552	0
0.87308149	-19.8495355880723	32.6868539851952	0
0.87341985	-19.9858811924344	32.8059031083146	0
0.87354566	-20.1224705844755	32.9254708847313	0
0.87378712	-20.2592795208391	33.0455197471628	0
0.8741374	-20.3963048103293	33.1660409257878	0
0.87417243	-20.5335729830369	33.2870594554458	0
0.87430686	-20.6711263540569	33.4086207789348	0
0.87456524	-20.8090107596563	33.530753309738	0
0.87464871	-20.9472544122606	33.6534727503428	0
0.87487118	-21.0858783693955	33.7768093598101	0
0.87518704	-21.2249145855167	33.9008106412806	0
0.87523975	-21.3644069157699	34.0255368077179	0
0.87535934	-21.5044002197878	34.1510531257667	0
0.87569808	-21.6449323944577	34.2773997418157	0
0.87582273	-21.7860189011875	34.4045880829762	0
0.87606295	-21.9276696627321	34.5326371733753	0
0.87642491	-22.0699080903039	34.6615786286612	0
0.87646111	-22.2127457029359	34.7914147845588	0
0.87659193	-22.3561741542664	34.9221012994975	0
0.87684641	-22.5001593425661	35.0535434913674	0
0.87692618	-22.6446514748115	35.1856547355511	0
0.87714787	-22.7896214783445	35.3184226626607	0
0.87746004	-22.9350658178415	35.4518814299424	0
0.877512	-23.0809915498664	35.5860659550786	0
0.87763063	-23.2274088884382	35.7209915236371	0
0.87796286	-23.374337633538	35.8566724370738	0
0.87808522	-23.5218017981309	35.9931723508874	0
0.87832227	-23.669841167875	36.1306135488668	0
0.87870662	-23.8185104123126	36.2691269764394	0
0.87874506	-23.9678597190451	36.4088065909423	0
0.87886959	-24.1179282201457	36.5496961182826	0
0.87911437	-24.2687445022291	36.6917962495753	0
0.87919627	-24.4203386784954	36.8351170928673	0
0.87941205	-24.5727563045931	36.9797147814683	0
0.87970947	-24.7260611418152	37.1256690877942	0
0.87976401	-24.8803043342021	37.2730312287477	0
0.8798786	-25.0355051283488	37.4218030822411	0
0.88021565	-25.1916510259272	37.5719585420818	0
0.88033932	-25.3487213802652	37.7234973038537	0
0.88057501	-25.5067149409076	37.8764554618841	0
0.88099593	-25.665666057043	38.0308927213725	0
0.88103802	-25.825614004361	38.1868472689927	0
0.8811609	-25.9865784003226	38.3443146219568	0
0.88143301	-26.1485124569264	38.5031806567327	0
0.88152452	-26.3113249087664	38.6632912128609	0
0.88173437	-26.4749253034863	38.8245363408873	0
0.88212138	-26.6392284086447	38.9868261565813	0
0.88216008	-26.8041450455189	39.1500586616544	0
0.88228916	-26.969589659779	39.3141303272785	0
0.88257151	-27.1354911745101	39.4789696164321	0
0.88267996	-27.3018134866114	39.644554407737	0
0.88289698	-27.4685378954434	39.8108960899241	0
0.88328762	-27.6356707290688	39.9780255591027	0
0.88362928	-27.8032104889304	40.1459427623278	0
0.88366344	-27.9711350467167	40.314609078983	0
0.88377716	-28.1394094607907	40.4839835354591	0
0.88396816	-28.308024200628	40.6540660947934	0
0.88405744	-28.4769906870616	40.824887731772	0
0.88427673	-28.6463438918971	40.9964886663625	0
0.88455033	-28.8161057686407	41.168869612203	0
0.88460254	-28.9862596954501	41.3419624381538	0
0.88471125	-29.1567538248283	41.5156536841222	0
0.88499991	-29.3275432905617	41.68988781933	0
0.88509409	-29.4986410143187	41.8647065839569	0
0.88530264	-29.6701093304242	42.0401895445025	0
0.88567616	-29.8420070735665	42.2163789894572	0
0.88588388	-30.0143489603225	42.3932363212071	0
0.88625518	-30.1870952752644	42.5706574310924	0
0.88647104	-30.3601949679715	42.7485824788367	0
0.88685137	-30.5336344893606	42.9270327911477	0
0.88688941	-30.707442568103	43.1060481519932	0
0.88692744	-30.8816491435543	43.2856278824891	0
0.8871176	-31.0562482569649	43.4656975749789	0
0.88739539	-31.2311756239184	43.646120098447	0
0.88744814	-31.4063501977228	43.8267983694311	0
0.88755758	-31.5817258284703	44.0077184631609	0
